<?xml version="1.0" encoding="utf-8"?>
<!-- Generator: Adobe Illustrator 26.2.1, SVG Export Plug-In . SVG Version: 6.00 Build 0)  -->
<svg version="1.1" id="Layer_1" xmlns="http://www.w3.org/2000/svg" xmlns:xlink="http://www.w3.org/1999/xlink" x="0px" y="0px"
	 viewBox="0 0 665.58 588.9" style="enable-background:new 0 0 665.58 588.9;" xml:space="preserve">
<style type="text/css">
	.st0{fill:#F2766B;}
</style>
<g>
	<path class="st0" d="M616.47,0H49.11C22.03,0,0,22.03,0,49.11v396.54c0,27.08,22.03,49.11,49.11,49.11h202.13l65.32,86.08
		c3.89,5.12,9.8,8.06,16.23,8.06c6.43,0,12.35-2.94,16.23-8.06l65.32-86.08h149.8c6.49,0,11.78-5.28,11.78-11.78
		c0-6.49-5.28-11.78-11.78-11.78H408.49c-3.66,0-7.17,1.74-9.38,4.66l-66.32,87.4l-66.32-87.4c-2.21-2.92-5.72-4.66-9.38-4.66H49.11
		c-14.09,0-25.56-11.46-25.56-25.56V49.11c0-14.09,11.46-25.56,25.56-25.56h567.36c14.09,0,25.56,11.46,25.56,25.56v396.54
		c0,14.09-11.46,25.56-25.56,25.56h-18.72c-6.49,0-11.78,5.28-11.78,11.78c0,6.49,5.28,11.78,11.78,11.78h18.72
		c27.08,0,49.11-22.03,49.11-49.11V49.11C665.58,22.03,643.55,0,616.47,0z"/>
	<path class="st0" d="M422.41,301.89c-27.02,28.75-62.75,52.09-89.62,69.39c-17.54-11.31-35.92-23.41-52.81-36.45
		c-2.08-1.61-4.57-2.46-7.19-2.46c-3.68,0-7.08,1.67-9.33,4.58c-1.92,2.49-2.76,5.58-2.36,8.7c0.4,3.12,1.99,5.9,4.48,7.82
		c20.16,15.56,41.77,29.45,60.83,41.71c1.9,1.22,4.11,1.87,6.37,1.87s4.46-0.65,6.37-1.87c33.03-21.23,70.46-45.29,100.42-77.18
		c25.97-27.63,43.15-57.44,51.07-88.59c5.1-20.06,5.67-38.71,1.71-55.44c-5.65-23.85-20.78-43.25-40.48-51.9
		c-10.16-4.46-20.78-6.72-31.57-6.72c-17.32,0-34.67,5.65-51.56,16.79c-13.21,8.72-25.54,20.51-35.96,34.34
		c-10.41-13.83-22.75-25.62-35.96-34.34c-16.89-11.14-34.24-16.79-51.56-16.8h-0.01c-10.78,0-21.4,2.26-31.57,6.72
		c-19.69,8.64-34.83,28.04-40.48,51.9c-3.96,16.74-3.39,35.39,1.71,55.44c7.92,31.15,25.1,60.96,51.07,88.59
		c4.83,5.14,10.06,10.29,15.54,15.32c2.18,2,5,3.1,7.96,3.1c3.29,0,6.46-1.39,8.68-3.82c4.39-4.79,4.07-12.25-0.72-16.64
		c-5.05-4.63-9.86-9.37-14.29-14.09c-22.88-24.34-38.58-51.41-45.4-78.26c-4.15-16.33-4.7-31.21-1.62-44.21
		c3.9-16.45,14.25-30.15,27.02-35.76c7.1-3.12,14.54-4.7,22.11-4.7c33.31,0,62.5,29.45,77.36,54.68c2.11,3.58,6,5.8,10.15,5.8
		s8.04-2.22,10.15-5.8c14.87-25.22,44.05-54.67,77.37-54.68c7.57,0,15.01,1.58,22.11,4.7c12.77,5.6,23.12,19.31,27.02,35.76
		c3.08,13,2.54,27.88-1.62,44.21C460.99,250.48,445.29,277.55,422.41,301.89z"/>
</g>
</svg>
